HIERARCHY
ROOT Hips
{
  OFFSET -35.2597 29.1586 114.425
  CHANNELS 6 Xposition Yposition Zposition Zrotation Xrotation Yrotation
  JOINT LeftUpLeg
  {
    OFFSET 8.64259 1.95398 -2.38835
    CHANNELS 3 Zrotation Xrotation Yrotation
    JOINT LeftLeg
    {
      OFFSET 43.7702 0 0
      CHANNELS 3 Zrotation Xrotation Yrotation
      JOINT LeftFoot
      {
        OFFSET 40.6238 0 0
        CHANNELS 3 Zrotation Xrotation Yrotation
        JOINT LeftToeBase
        {
          OFFSET 12.7242 0 0
          CHANNELS 3 Zrotation Xrotation Yrotation
          End Site
          {
            OFFSET 0 0 0
          }
        }
      }
    }
  }
  JOINT RightUpLeg
  {
    OFFSET -8.2249 1.95398 -2.59336
    CHANNELS 3 Zrotation Xrotation Yrotation
    JOINT RightLeg
    {
      OFFSET 43.5653 0 0
      CHANNELS 3 Zrotation Xrotation Yrotation
      JOINT RightFoot
      {
        OFFSET 40.6238 0 0
        CHANNELS 3 Zrotation Xrotation Yrotation
        JOINT RightToeBase
        {
          OFFSET 12.7242 0 0
          CHANNELS 3 Zrotation Xrotation Yrotation
          End Site
          {
            OFFSET 0 0 0
          }
        }
      }
    }
  }
  JOINT Spine
  {
    OFFSET 0.165834 0.87714 6.61349
    CHANNELS 3 Zrotation Xrotation Yrotation
    JOINT Spine1
    {
      OFFSET 7.38963 1.71661e-005 0
      CHANNELS 3 Zrotation Xrotation Yrotation
      JOINT Spine2
      {
        OFFSET 11.9445 1.14441e-005 0
        CHANNELS 3 Zrotation Xrotation Yrotation
        JOINT Spine3
        {
          OFFSET 14.7254 4.19617e-005 0
          CHANNELS 3 Zrotation Xrotation Yrotation
          JOINT Spine4
          {
            OFFSET 10.9679 0 0
            CHANNELS 3 Zrotation Xrotation Yrotation
            JOINT RightShoulder
            {
              OFFSET 2.46616 -1.6653 3.69651
              CHANNELS 3 Zrotation Xrotation Yrotation
              JOINT RightArm
              {
                OFFSET 13.0012 0 0
                CHANNELS 3 Zrotation Xrotation Yrotation
                JOINT RightForeArm
                {
                  OFFSET 28.7848 1.62311e-005 0
                  CHANNELS 3 Zrotation Xrotation Yrotation
                  JOINT RightHand
                  {
                    OFFSET 26.5688 1.62095e-005 0
                    CHANNELS 3 Zrotation Xrotation Yrotation
                    End Site
                    {
                      OFFSET 0 0 0
                    }
                  }
                }
              }
            }
            JOINT LeftShoulder
            {
              OFFSET 2.38034 -1.29275 -3.7523
              CHANNELS 3 Zrotation Xrotation Yrotation
              JOINT LeftArm
              {
                OFFSET 16.3182 6.07031e-005 0
                CHANNELS 3 Zrotation Xrotation Yrotation
                JOINT LeftForeArm
                {
                  OFFSET 27.0901 0 0
                  CHANNELS 3 Zrotation Xrotation Yrotation
                  JOINT LeftHand
                  {
                    OFFSET 24.5451 1.51738e-005 0
                    CHANNELS 3 Zrotation Xrotation Yrotation
                    End Site
                    {
                      OFFSET 0 0 0
                    }
                  }
                }
              }
            }
            JOINT Neck
            {
              OFFSET 5.0226 -0.0266342 0
              CHANNELS 3 Zrotation Xrotation Yrotation
              JOINT Head
              {
                OFFSET 6.69364 2.86102e-005 0
                CHANNELS 3 Zrotation Xrotation Yrotation
                End Site
                {
                  OFFSET 0 0 0
                }
              }
            }
          }
        }
      }
    }
  }
}
MOTION
Frames:	15
Frame Time:	0.0416667
-226.102 97.8453 -193.83 97.6797 -33.8487 96.0388 -174.638 12.5425 94.2584 -61.843 9.64664 3.56791 62.4958 2.15138 5.26539 15.5584 -3.58237 -5.03129 174.908 3.48099 95.885 -24.7252 -2.69142 2.82464 72.0817 -6.89092 -3.26874 15.5295 1.61347 9.76516 0.0294028 8.42176 -90.5343 10.0292 -0.184442 -1.04596 -1.64215 -0.230284 -1.03684 -24.1738 0.138417 -1.05303 -4.16118 0.138422 -1.05304 87.5446 -36.0017 -109.101 39.5017 9.76349 -1.47963 -5.26364 -41.4712 -5.42876 -17.2385 2.17091 -20.0736 -88.1474 -57.626 82.8071 -22.5439 -13.9106 -17.0867 3.48432 38.3327 -4.56312 -0.973575 -0.237027 -16.9187 10.3131 -4.19052 -3.04181 3.03837 -3.38487 -0.177827 
-222.24 98.2976 -189.971 97.2681 -36.1829 93.4443 -174.986 18.4235 89.8504 -53.2232 6.06901 1.56844 64.6762 4.14279 5.75933 18.4604 -2.35549 -4.85024 174.634 -0.427916 93.9206 -22.7668 -6.08621 1.44856 72.8628 -6.92496 -4.26225 16.508 1.30852 9.68308 0.580304 8.36442 -90.1466 10.148 1.0896 -0.383459 -1.52256 1.07166 -0.431054 -24.0614 1.15446 -0.0382253 -4.04873 1.15445 -0.0382254 87.7217 -34.8095 -109.239 38.9594 9.06363 -6.0882 -5.25442 -41.3381 -5.42373 -19.3592 2.83765 -22.2814 -87.4249 -57.9161 83.8488 -20.4827 -15.0204 -13.7058 3.17502 32.8696 -4.21576 1.87959 -0.552792 -16.7019 7.46975 -4.74529 -2.21201 3.59394 -4.22567 -1.26402 
-218.139 98.2053 -186.261 97.0804 -39.1417 92.3108 -175.597 20.783 87.3218 -36.8104 4.47388 -0.283701 62.5323 3.26026 5.34065 23.2307 -2.00127 -1.45505 174.584 -3.74105 92.9262 -21.9711 -10.9082 0.227377 72.4175 -6.53806 -6.48614 20.1735 0.259357 9.13151 1.02114 8.44431 -89.9342 9.9868 2.06507 -0.0391896 -1.68251 2.06134 -0.130085 -24.2301 1.98134 0.58351 -4.21745 1.98135 0.583509 87.4909 -33.642 -110.13 37.313 8.56946 -12.484 -5.56156 -45.6274 -5.61161 -23.2702 3.34209 -21.7994 -87.4622 -59.8029 84.0729 -16.8033 -16.6629 -10.9321 3.15298 31.4798 -4.22391 1.18592 -0.531577 -18.4974 6.69044 -4.64219 -0.545468 3.20447 -4.49699 -2.02888 
-213.54 97.2048 -182.274 96.7352 -41.7464 91.8506 -177.106 20.1211 86.3369 -15.886 3.67681 -1.06521 60.8853 2.89664 2.74487 22.0121 -3.39868 -0.053645 174.295 -8.32035 92.0172 -20.5817 -11.815 -0.594203 75.7921 -9.17133 -6.37115 22.0054 -0.586569 9.75276 1.2833 8.45624 -89.79 9.9608 2.65311 0.19948 -1.70744 2.65933 0.0824337 -24.262 2.47044 0.988109 -4.24933 2.47042 0.988102 87.0504 -33.0948 -111.178 35.3046 8.44976 -18.7939 -5.81601 -48.7775 -5.78127 -25.7899 3.29981 -19.9006 -87.3236 -61.0496 84.4353 -14.0358 -17.6871 -7.11551 3.08709 29.9721 -4.1499 0.437267 -0.448795 -18.8483 6.60339 -4.26404 0.853052 2.9918 -4.41863 -2.57291 
-208.614 95.7265 -177.917 97.0148 -44.7526 92.486 -177.586 21.7039 86.5824 -7.15454 2.98243 -2.16803 62.6807 2.92583 2.2208 23.6965 -4.89773 4.14551 173.621 -12.3205 91.1529 -21.5111 -14.8726 -1.16017 76.4607 -10.0873 -7.21335 25.2628 -1.48551 9.23859 1.56451 8.47156 -89.74 9.92943 3.23631 0.252422 -1.73748 3.24427 0.109592 -24.3014 3.01068 1.21426 -4.28877 3.01068 1.21426 86.4398 -33.0557 -112.331 33.1467 8.84503 -23.8909 -5.84377 -49.1014 -5.80023 -26.0116 3.72455 -21.6315 -87.3228 -62.3629 84.6168 -12.3239 -18.1276 -3.27544 3.02391 28.3982 -4.08398 -0.914105 -0.25318 -17.1338 6.51927 -3.83365 1.9897 3.16915 -4.22667 -2.65799 
-203.049 94.6049 -172.971 99.0454 -48.0272 94.2351 -176.443 20.4566 86.9494 -7.23114 2.62259 -2.98459 55.2806 -1.71032 0.0746444 20.7308 -5.08295 1.66503 171.437 -17.6575 88.1249 -21.6157 -18.775 -1.59485 74.6774 -9.6341 -6.71394 32.1783 -4.09738 10.658 1.82007 8.56497 -89.6789 9.7406 3.77344 0.33962 -1.92489 3.78472 0.172969 -24.4988 3.49671 1.45935 -4.48613 3.4967 1.45934 86.3218 -32.7451 -112.69 32.4566 8.7062 -27.4399 -5.959 -50.374 -5.8813 -25.9937 4.10497 -23.2949 -87.2734 -64.3958 84.952 -10.2078 -18.592 0.38594 3.0297 28.5539 -4.08948 -2.20277 -0.112294 -16.0971 7.24584 -3.35222 2.62931 3.29884 -3.90371 -2.77634 
-196.947 94.4017 -167.337 99.271 -50.815 92.6311 -175.815 23.7456 84.9369 -20.3773 7.77047 -3.03134 55.2117 -3.68825 -0.343063 13.3007 -9.75962 2.20457 169.104 -19.3426 83.522 -24.4535 -22.1968 -3.30834 69.1992 -6.28463 -6.47674 39.7024 -6.54217 11.7341 1.97501 8.50076 -89.2892 9.85532 4.25892 1.06762 -1.80893 4.30176 0.878816 -24.3862 3.74097 2.29972 -4.37355 3.74097 2.29971 86.0885 -33.214 -112.914 34.9779 6.90379 -28.1364 -5.64809 -46.716 -5.66781 -27.3735 4.00675 -21.9383 -87.15 -64.7504 85.1571 -9.83636 -18.5958 1.8562 3.10823 30.5284 -4.17123 -1.1766 -0.144584 -9.54704 8.96384 -3.28193 1.60517 1.83088 -3.63745 -3.75122 
-190.809 94.9601 -161.494 100.288 -51.9321 91.4855 -174.482 21.7054 82.512 -28.652 8.66192 -3.97983 58.4176 -1.59601 2.89007 19.0969 -4.0209 -1.56031 168.212 -17.0574 80.1278 -34.3931 -23.6948 -5.67116 60.6147 0.205081 -3.42411 34.8332 -5.20269 12.1008 1.95104 8.44551 -88.9575 9.95064 4.36209 1.7127 -1.71386 4.43319 1.51875 -24.284 3.64568 2.94552 -4.2713 3.64566 2.94551 86.4563 -33.4773 -112.117 38.4019 5.27993 -25.1454 -5.64826 -46.7411 -5.66798 -27.6769 4.91752 -25.4052 -87.4285 -63.3489 84.6122 -10.5628 -18.268 3.28 2.92549 25.6016 -3.98557 -3.35005 -0.0392318 -10.4695 9.01575 -3.32502 -0.0732453 1.35443 -3.30249 -3.84076 
-185.432 95.702 -156.627 100.469 -53.192 90.7821 -173.922 17.4361 81.2038 -30.7434 7.79912 -4.48459 64.1607 2.88546 4.32661 20.1807 -3.78639 -1.04226 169.606 -9.25129 78.4912 -48.8031 -25.279 -6.88039 52.2096 5.5563 0.92716 21.3788 -0.649016 10.5692 1.74472 8.39346 -88.811 10.0495 4.01804 2.027 -1.61649 4.10332 1.84799 -24.1739 3.22326 3.14128 -4.16124 3.22326 3.14127 86.4413 -33.768 -112.018 40.8234 4.35563 -22.6238 -6.06227 -51.4843 -5.95457 -23.5691 4.31256 -26.4567 -87.4025 -62.1355 84.4807 -12.8179 -17.7661 0.259036 2.93491 25.855 -3.99601 -1.37919 -0.121725 -8.56157 9.93586 -2.73994 -1.31751 -0.875031 -2.3837 -3.75586 
-180.615 96.5786 -152.26 99.8484 -54.3348 90.8608 -175.061 12.9126 80.7593 -29.7921 4.74347 -3.70447 69.0358 6.25495 4.03243 19.5148 -4.4286 -0.55391 172.641 -0.820646 80.0046 -59.0429 -30.3113 -7.71783 56.0748 2.66693 -4.83643 20.6613 -0.733928 11.4127 1.41731 8.37812 -88.9454 10.0891 3.30454 1.8175 -1.5787 3.38132 1.67019 -24.1265 2.6057 2.72675 -4.1138 2.6057 2.72674 86.5038 -33.5429 -112 42.5373 4.24974 -19.1484 -6.45498 -55.2561 -6.25087 -24.6098 4.37825 -25.7087 -87.7177 -61.5101 83.9761 -14.9759 -17.2781 -5.97182 3.00771 27.8814 -4.06992 0.0651186 -0.171924 -8.17922 9.15398 -1.32223 -1.64263 0.124168 -0.961767 -2.9876 
-176.357 97.5977 -148.008 100.095 -55.865 93.6427 -175.231 6.98737 82.4398 -26.3864 3.72853 -2.92079 71.774 8.41265 4.34914 20.4005 -5.61998 2.21159 176.146 6.58827 84.1816 -60.0827 -21.4481 -6.61558 65.9656 -4.63376 -5.7865 17.6052 0.552921 10.633 1.0572 8.38033 -89.3237 10.101 2.41465 1.14056 -1.56816 2.46251 1.03312 -24.1121 1.96027 1.81364 -4.09948 1.96026 1.81364 86.2939 -34.1372 -112.131 43.502 4.98302 -14.4028 -6.13529 -52.2409 -6.009 -25.958 4.4425 -24.788 -87.6198 -59.8561 83.8677 -17.2589 -16.4858 -12.4637 3.05313 29.0675 -4.11731 2.88936 -0.305268 -9.04069 7.61272 0.906204 -2.67836 0.874244 1.40946 -1.31838 
-172.05 98.4986 -143.507 98.2175 -55.6842 94.5817 -175.593 1.10936 83.9634 -20.9823 2.84778 -1.68178 73.2794 9.53987 2.71885 22.3129 -5.18123 3.28964 177.663 14.3061 88.3863 -53.6266 -12.2098 -4.6781 69.1038 -6.05129 -2.46828 17.6592 1.61064 7.93337 0.491678 8.31919 -89.7382 10.2331 1.09928 0.426041 -1.43748 1.11699 0.377228 -23.9747 0.920403 0.736735 -3.96209 0.920413 0.736735 86.7193 -34.458 -111.217 42.4851 6.75661 -9.42356 -5.98126 -50.6266 -5.89743 -24.107 4.18316 -25.1543 -87.6433 -58.625 83.651 -17.947 -16.2123 -19.0837 3.07097 29.3933 -4.14376 5.18609 -0.594509 -11.9852 6.06021 3.44763 -2.88595 1.23219 3.90835 -0.636685 
-167.757 98.2039 -138.833 95.2193 -55.2136 94.0472 -175.196 -3.97956 85.3843 -16.7892 1.69509 -1.00363 77.339 11.7405 -0.724381 22.4502 -4.69032 2.58173 177.916 20.9416 91.4395 -42.8344 -12.5199 -2.51234 68.2314 -5.57048 -3.65502 21.8043 0.1626 7.84139 -0.0554744 8.25969 -90.0073 10.3542 -0.113807 -0.00448327 -1.31668 -0.113882 0.000523993 -23.852 -0.107202 -0.0384718 -3.83933 -0.107212 -0.0384848 87.6887 -35.0801 -109.191 41.0848 8.49668 -4.61432 -5.55172 -45.4941 -5.60338 -21.4007 3.90291 -26.2575 -87.2569 -54.4578 83.5635 -18.9923 -15.6355 -25.5466 3.01701 28.1642 -4.07828 2.44985 -0.575705 -16.5449 6.17751 5.39376 -4.99511 0.833649 6.25904 1.6483 
-163.153 96.9052 -133.739 91.7202 -55.1513 91.8473 -174.759 -8.73745 85.975 -12.93 1.83341 -1.04072 80.1868 13.7876 -0.632221 23.2317 -4.24836 2.56667 178.452 27.7192 93.0452 -32.4767 -15.0789 -1.04227 66.8359 -4.63296 -2.95682 21.4631 0.683338 6.74667 -0.46745 8.26428 -90.155 10.3445 -1.00209 -0.220929 -1.32604 -1.01084 -0.176633 -23.8636 -0.88936 -0.511918 -3.85094 -0.889373 -0.511914 88.5153 -34.8925 -107.752 40.2058 9.95621 0.762123 -5.14841 -39.7199 -5.36439 -24.5999 4.17784 -24.7612 -86.7224 -52.2567 83.9965 -19.4416 -15.2774 -33.4142 2.9592 26.5595 -4.02029 3.9536 -0.86909 -18.3583 9.50495 6.86173 -5.58888 -1.00519 7.9203 1.74531 
-158.168 94.7756 -128.158 87.891 -54.0475 89.0518 -174.411 -13.1163 86.2432 -10.0886 1.6006 -0.827484 84.004 15.7574 -2.60091 24.3092 -4.66121 4.36836 178.455 34.0877 93.9527 -24.4293 -10.3514 0.432188 67.1826 -4.71565 -2.12814 19.7082 1.07484 7.39726 -0.80272 8.26021 -90.2407 10.3516 -1.7093 -0.329379 -1.31822 -1.72213 -0.253816 -23.8606 -1.53127 -0.82797 -3.84797 -1.53126 -0.827969 88.133 -35.5995 -108.188 38.3309 11.7663 7.18911 -4.70111 -32.0466 -5.14213 -25.6306 4.16509 -23.832 -86.778 -51.3173 83.7694 -18.3644 -16.0339 -41.3288 2.97371 26.9444 -4.03589 5.20768 -1.23126 -21.4628 12.6385 7.3509 -6.68751 -1.00535 8.78664 2.44315 
